<?xml version="1.0" standalone="no"?>
<!DOCTYPE svg PUBLIC "-//W3C//DTD SVG 20010904//EN"
 "http://www.w3.org/TR/2001/REC-SVG-20010904/DTD/svg10.dtd">
<svg version="1.0" xmlns="http://www.w3.org/2000/svg"
 width="2000.000000pt" height="1600.000000pt" viewBox="0 0 2000.000000 1600.000000"
 preserveAspectRatio="xMidYMid meet">

<g transform="translate(0.000000,1600.000000) scale(0.100000,-0.100000)"
fill="#000000" stroke="none">
<path d="M15623 12403 c9 -2 23 -2 30 0 6 3 -1 5 -18 5 -16 0 -22 -2 -12 -5z"/>
<path d="M15296 12379 c-56 -9 -320 -33 -551 -49 -88 -6 -194 -16 -235 -21
-41 -6 -122 -17 -180 -24 -215 -28 -567 -94 -695 -130 -27 -8 -102 -28 -165
-46 -154 -43 -663 -210 -725 -239 -11 -5 -78 -33 -150 -62 -181 -73 -423 -195
-665 -334 -113 -65 -254 -146 -313 -180 l-108 -62 -222 -5 c-310 -7 -518 -43
-802 -141 -367 -126 -673 -294 -1033 -569 -121 -93 -440 -422 -618 -639 -79
-96 -229 -228 -294 -259 -36 -18 -144 -70 -240 -116 -223 -108 -300 -147 -295
-151 2 -2 17 4 34 13 18 9 35 13 40 11 5 -3 93 37 196 89 104 52 195 95 204
95 10 0 4 -12 -20 -36 -41 -44 -190 -171 -239 -204 -19 -13 -37 -27 -40 -30
-3 -3 -52 -44 -110 -90 -124 -100 -270 -242 -253 -247 15 -5 81 36 171 108 40
33 80 59 87 59 8 0 30 14 48 30 19 17 38 30 42 30 10 0 86 54 118 83 15 15 27
24 27 21 0 -3 60 57 133 132 72 75 159 155 192 177 106 73 238 147 261 147 13
0 25 4 28 8 3 5 32 17 65 27 33 11 58 23 55 26 -2 4 5 5 16 2 12 -3 20 0 20 7
0 7 8 10 20 7 12 -3 18 -1 14 5 -4 6 2 8 16 3 14 -4 20 -3 17 2 -4 6 35 23 86
38 51 16 99 32 107 36 8 4 33 14 55 23 l40 15 -47 -3 c-38 -3 -45 -2 -35 9 20
20 61 39 207 96 74 29 162 70 194 92 33 22 66 40 72 40 7 0 11 4 8 8 -4 7 13
18 109 65 26 13 47 26 47 28 0 5 -36 -2 -60 -11 -8 -4 -19 -5 -24 -4 -4 1 -14
-4 -22 -10 -10 -8 -14 -8 -14 0 0 6 16 17 35 25 19 8 35 17 35 20 0 5 -56 -10
-85 -23 -24 -11 -77 -25 -87 -23 -5 1 -8 -2 -8 -6 0 -4 -24 -16 -52 -27 -29
-10 -55 -22 -58 -25 -3 -4 -59 -33 -125 -64 -66 -32 -146 -71 -178 -87 -31
-16 -64 -29 -72 -29 -8 0 -15 -4 -15 -10 0 -5 -15 -10 -32 -10 -26 0 -30 -3
-18 -11 12 -9 12 -10 -4 -5 -11 4 -26 0 -37 -10 -19 -17 -49 -13 -49 6 0 6 11
15 24 19 13 5 26 16 29 24 3 9 22 23 42 33 20 9 39 23 42 31 3 7 9 13 15 13 5
0 29 14 53 30 24 17 48 30 53 30 5 0 17 9 27 20 10 11 26 20 35 20 9 0 25 9
35 20 10 11 23 20 29 20 7 0 28 8 48 19 37 18 122 22 147 7 6 -4 17 -3 24 2 7
5 24 12 40 16 15 3 27 11 27 16 0 6 6 10 13 10 7 0 20 8 29 18 26 28 69 62 79
62 5 0 9 8 9 18 0 13 2 14 9 4 6 -10 12 -8 23 10 29 43 53 65 67 60 8 -3 11 0
7 6 -4 6 9 16 29 23 19 7 35 17 35 21 0 4 6 8 14 8 7 0 19 7 26 15 7 8 16 12
21 9 5 -3 9 2 9 11 0 13 4 14 20 5 16 -9 19 -8 13 7 -5 12 -2 15 10 10 8 -3
21 1 27 8 7 8 16 13 20 10 4 -2 16 5 26 16 10 11 24 17 31 15 8 -3 21 -1 31 4
30 17 113 40 122 35 5 -3 11 -1 15 4 3 5 26 9 50 8 30 -1 47 3 50 12 4 9 17
12 43 9 20 -3 53 1 74 8 20 7 39 10 41 7 3 -3 12 -1 19 3 14 9 24 12 71 21 15
3 27 9 27 13 0 4 20 11 45 14 24 4 49 14 53 22 5 9 12 15 15 15 15 -3 63 13
85 27 12 8 22 12 22 9 0 -3 24 4 53 15 28 11 70 24 92 28 133 26 164 34 200
50 39 17 95 17 95 -1 0 -5 6 -6 13 -3 23 9 326 -73 560 -150 261 -87 720 -257
1037 -384 423 -170 502 -207 483 -226 -4 -3 -2 -6 4 -6 5 0 32 -31 59 -69 55
-78 84 -96 84 -52 0 15 -5 32 -12 39 -7 7 -8 12 -3 12 6 0 3 5 -5 10 -12 8
-12 10 -1 10 11 0 11 3 1 15 -7 8 -10 15 -6 15 10 0 250 -101 259 -109 4 -4
-57 -33 -135 -64 -79 -31 -156 -66 -172 -76 l-29 -19 36 -7 c21 -4 37 -11 37
-16 0 -5 7 -9 16 -9 8 0 22 -7 30 -15 37 -37 93 -2 95 60 2 26 9 46 23 58 20
18 20 19 1 13 -19 -6 -19 -6 -1 9 10 8 22 12 27 10 4 -3 9 0 11 7 2 6 19 11
36 11 21 0 28 3 20 8 -7 5 4 7 27 5 41 -4 97 -24 197 -70 31 -14 62 -26 68
-26 6 0 8 -5 4 -12 -4 -7 -3 -8 5 -4 6 4 19 2 28 -6 9 -7 18 -12 20 -10 10 7
23 0 17 -10 -4 -6 -3 -8 4 -4 6 3 48 -10 94 -30 520 -227 1065 -491 1297 -628
97 -57 123 -68 101 -41 -7 8 -9 15 -4 15 5 0 2 5 -6 10 -12 7 -8 10 15 10 18
0 38 8 48 20 20 24 31 25 111 4 53 -13 456 -144 496 -161 8 -3 18 -7 23 -8 4
-2 8 -3 10 -5 1 -1 9 -3 17 -5 8 -2 103 -34 210 -71 107 -36 206 -68 220 -70
14 -3 59 -15 100 -29 96 -30 256 -75 267 -74 9 0 4 2 -357 137 -299 111 -588
231 -1365 564 -859 369 -1375 600 -1368 611 4 6 -1 8 -11 4 -21 -8 -421 159
-591 247 -78 40 -172 102 -267 174 -233 178 -420 291 -628 380 -255 109 -533
195 -837 258 -25 5 -32 24 -8 24 8 0 31 16 50 35 20 19 42 32 49 29 7 -3 21 4
31 16 10 11 24 20 32 20 7 0 13 4 13 8 0 5 23 19 52 31 29 13 75 37 103 55 27
18 64 39 82 46 18 6 38 18 44 26 6 8 22 14 35 14 12 0 26 5 29 10 3 6 13 10
22 10 9 0 21 6 27 14 6 7 47 28 91 46 44 18 107 46 140 62 33 16 68 31 78 33
9 2 32 14 50 27 17 12 36 23 42 23 5 1 24 7 40 14 17 7 37 14 45 16 8 2 40 16
70 31 30 15 69 30 85 35 17 4 75 23 130 43 55 19 174 58 265 86 91 28 175 55
188 61 13 5 34 9 48 9 14 0 34 5 45 10 24 13 306 86 409 107 164 32 278 54
345 68 39 8 97 20 130 25 175 30 397 74 465 91 117 29 173 40 178 35 3 -3 16
1 29 9 13 9 29 15 36 14 6 -1 19 1 27 4 8 3 33 8 55 10 22 2 2 4 -45 4 -47 0
-107 -3 -134 -8z m-6186 -2429 c0 -5 -2 -10 -4 -10 -3 0 -8 5 -11 10 -3 6 -1
10 4 10 6 0 11 -4 11 -10z"/>
<path d="M0 12345 c0 -5 39 -59 86 -120 540 -688 1107 -1526 1502 -2215 489
-855 990 -2107 1352 -3380 133 -469 168 -647 190 -965 11 -169 13 -460 3 -518
-5 -35 -8 -38 -31 -32 -14 3 -57 21 -96 39 -39 19 -89 39 -111 46 -22 7 -53
19 -70 26 -16 7 -42 15 -57 19 -15 4 -32 13 -39 21 -6 8 -17 14 -24 14 -7 0
-118 52 -246 116 -129 64 -240 117 -246 117 -7 0 -13 4 -13 9 0 4 -11 8 -25 8
-14 0 -33 9 -42 20 -10 11 -26 20 -36 20 -31 0 -647 322 -655 342 -2 4 -10 8
-17 8 -18 0 -219 101 -223 112 -2 4 -12 8 -21 8 -10 0 -28 9 -41 20 -13 11
-29 20 -36 20 -7 0 -32 12 -56 28 -62 39 -75 46 -158 88 -41 21 -88 46 -103
57 -16 11 -58 35 -95 55 -37 19 -68 39 -70 43 -2 5 -7 9 -12 9 -4 0 -41 21
-82 46 -40 25 -93 58 -117 73 -80 48 -166 106 -173 116 -4 5 -8 6 -8 1 0 -5
-9 1 -20 14 -11 13 -20 20 -20 17 0 -7 -111 61 -150 93 -32 26 -40 25 -40 -3
0 -18 41 -50 228 -174 478 -318 942 -600 1327 -808 39 -21 75 -41 80 -45 6 -4
116 -61 245 -128 326 -166 580 -284 1105 -509 181 -77 214 -95 208 -112 -4
-12 -3 -13 5 -3 7 11 64 -8 278 -93 444 -177 766 -290 1207 -425 l219 -66
-169 -17 c-141 -15 -475 -35 -563 -35 -134 0 -283 20 -370 48 -144 47 -195 73
-277 140 -7 6 -15 10 -18 10 -10 0 -90 64 -94 75 -2 6 -28 34 -57 63 -30 29
-54 59 -54 66 0 7 -9 24 -21 37 -11 13 -18 32 -15 43 4 15 0 14 -23 -8 -15
-14 -30 -24 -34 -21 -4 3 -5 2 -3 -1 3 -4 -6 -28 -20 -53 -28 -55 -64 -177
-64 -221 0 -26 6 -32 53 -52 28 -12 79 -36 112 -54 194 -101 321 -118 878
-111 390 4 588 16 808 47 74 10 81 9 280 -39 449 -109 826 -179 1214 -226 253
-30 301 -35 440 -45 77 -5 201 -15 275 -21 177 -14 881 -15 1035 0 66 6 176
15 245 21 238 20 641 80 945 141 151 31 472 108 555 134 320 100 424 134 530
173 69 25 151 54 183 65 34 11 54 23 50 29 -3 7 -1 8 6 4 16 -10 83 13 75 26
-4 7 -2 8 5 4 16 -10 83 13 75 26 -4 6 -2 8 4 5 5 -4 21 -3 34 2 21 9 21 10 3
11 -11 1 -28 3 -37 5 -10 2 -20 -5 -23 -16 -4 -11 -11 -16 -17 -13 -6 4 -5 10
3 15 11 7 11 9 1 9 -7 0 -15 -7 -18 -15 -4 -8 -14 -15 -24 -15 -11 0 -22 -4
-25 -10 -3 -5 -14 -10 -23 -10 -9 0 -30 -7 -46 -15 -32 -17 -49 -20 -26 -5 8
5 10 10 4 10 -6 0 -19 -9 -29 -20 -10 -11 -23 -20 -29 -20 -6 0 -4 5 4 11 13
9 13 10 0 6 -8 -2 -14 -10 -12 -17 2 -8 -4 -11 -20 -7 -12 4 -27 2 -32 -3 -6
-4 -40 -16 -76 -25 -35 -9 -77 -23 -93 -31 -15 -8 -37 -12 -48 -9 -12 4 -19 2
-17 -5 2 -7 -3 -15 -11 -18 -9 -3 -11 0 -6 8 5 7 -1 6 -16 -3 -13 -8 -40 -18
-59 -22 -19 -4 -46 -15 -59 -24 -19 -12 -23 -13 -16 -2 6 11 4 13 -11 6 -10
-4 -34 -13 -52 -20 -18 -6 -29 -15 -25 -20 5 -4 3 -5 -4 -2 -6 4 -38 -1 -72
-12 -33 -10 -62 -17 -65 -14 -2 3 -15 -3 -29 -12 -18 -11 -27 -13 -32 -5 -5 8
-10 8 -20 0 -18 -15 -109 -37 -185 -44 -35 -4 -67 -10 -70 -15 -3 -4 -34 -7
-70 -6 -37 2 -56 -1 -45 -5 15 -5 10 -8 -22 -11 -24 -3 -43 -3 -43 -2 0 1 30
17 68 35 l67 33 -57 3 c-43 2 -58 7 -58 17 0 17 27 20 49 6 10 -6 25 -4 43 5
16 8 38 12 53 8 15 -4 25 -2 25 4 0 6 26 18 58 27 31 9 72 23 90 31 19 9 47
17 63 19 16 2 37 9 47 14 15 9 15 10 -4 11 -12 0 -63 -9 -115 -21 -52 -11
-113 -23 -136 -26 -27 -3 -43 -11 -43 -19 0 -8 -4 -14 -10 -14 -5 0 -10 4 -10
8 0 12 -53 13 -60 2 -4 -6 -29 -13 -56 -14 -27 -2 -62 -11 -79 -20 l-30 -16
30 0 c36 0 75 -10 75 -19 0 -3 -23 -7 -50 -9 -28 -1 -62 -7 -76 -12 -14 -6
-38 -10 -54 -10 -16 0 -32 -5 -36 -11 -4 -6 -20 -8 -38 -5 -18 4 -46 2 -62 -3
-16 -5 -56 -14 -89 -21 -33 -7 -87 -18 -120 -26 -70 -15 -81 -17 -285 -48
-250 -37 -631 -76 -745 -75 -38 1 -196 1 -350 0 -368 -1 -363 -1 -848 49 -100
11 -277 34 -382 51 -38 6 -78 11 -87 11 -10 -1 -20 3 -23 9 -4 5 -18 9 -33 9
-25 0 -285 53 -387 79 -22 5 -61 13 -87 16 -27 3 -48 10 -48 16 0 5 -13 9 -30
9 -17 0 -30 5 -30 13 0 8 -4 7 -10 -3 -8 -12 -11 -13 -19 -1 -7 11 -9 11 -14
0 -4 -10 -6 -9 -6 3 -1 10 -7 15 -13 13 -7 -2 -40 2 -73 9 l-60 12 40 7 c22 4
92 16 155 27 63 11 302 52 530 91 691 116 820 139 938 164 396 86 635 168
1022 350 478 225 586 269 685 279 54 5 129 16 195 30 14 3 50 11 80 17 182 36
551 148 695 211 232 101 412 203 549 312 72 57 168 150 157 154 -5 2 -45 -17
-88 -41 -160 -91 -286 -156 -433 -225 -47 -22 -129 -60 -182 -86 -162 -77
-399 -160 -633 -221 -77 -20 -196 -52 -265 -72 -158 -45 -265 -60 -510 -72
-750 -38 -1825 162 -2448 455 -279 131 -535 308 -892 615 -657 565 -861 767
-1053 1038 -38 53 -75 105 -83 116 -24 34 -164 247 -164 249 0 2 -28 45 -62
96 -35 51 -67 100 -73 109 -25 40 -130 197 -135 201 -3 3 -27 38 -55 78 -27
41 -53 76 -57 78 -14 9 -9 -14 7 -30 8 -8 15 -17 15 -21 0 -3 8 -18 18 -33 40
-59 78 -114 92 -136 60 -92 94 -142 99 -146 4 -3 13 -18 21 -34 29 -56 35 -66
42 -66 5 0 8 -9 8 -20 0 -11 4 -20 8 -20 7 0 27 -31 110 -175 39 -67 162 -257
172 -265 3 -3 20 -25 37 -48 17 -24 50 -63 72 -87 23 -24 41 -46 41 -49 0 -3
8 -14 17 -24 10 -10 31 -36 47 -58 34 -46 241 -251 311 -309 27 -22 57 -48 67
-57 10 -10 18 -16 18 -13 0 3 14 -8 30 -25 34 -35 34 -34 19 -62 -8 -15 -8
-19 0 -13 6 3 26 -5 44 -19 17 -15 37 -30 42 -34 6 -5 14 -9 18 -10 4 -1 24
-19 44 -41 20 -22 39 -39 42 -38 6 3 72 -62 68 -67 -1 -1 24 -25 55 -53 32
-28 67 -62 79 -77 11 -14 25 -24 30 -21 5 4 9 2 9 -3 0 -12 84 -101 116 -122
12 -8 44 -34 70 -57 106 -92 234 -193 243 -193 5 0 11 -4 13 -8 4 -9 118 -80
173 -107 22 -11 47 -25 55 -31 60 -47 473 -249 531 -261 16 -3 32 -10 35 -14
3 -5 12 -9 20 -9 8 0 33 -9 56 -20 23 -11 56 -23 75 -26 18 -3 36 -10 39 -15
3 -5 16 -9 29 -9 13 0 27 -4 30 -10 3 -5 17 -10 31 -10 13 0 24 -4 24 -9 0 -5
16 -12 35 -15 53 -10 156 -45 172 -58 11 -8 12 -7 7 6 -6 15 0 14 47 -5 93
-36 218 -68 286 -72 18 -1 38 -10 46 -21 12 -16 23 -18 80 -14 50 4 67 2 67
-7 0 -7 25 -17 62 -25 43 -8 57 -14 47 -21 -10 -6 -3 -9 22 -9 19 0 40 -5 46
-11 6 -6 19 -12 29 -13 11 -2 24 -14 31 -27 7 -13 20 -29 29 -36 9 -6 13 -17
9 -23 -6 -9 -10 -9 -16 1 -6 10 -9 8 -9 -9 0 -12 -7 -25 -15 -27 -51 -16 -50
-16 -35 -25 12 -8 10 -10 -7 -10 -13 0 -28 -9 -35 -20 -7 -11 -18 -20 -25 -20
-6 0 -14 -6 -16 -12 -4 -10 -8 -10 -15 1 -8 11 -11 9 -17 -8 -4 -15 -15 -21
-35 -21 -15 0 -30 -6 -33 -14 -3 -7 -29 -19 -59 -26 -29 -7 -57 -16 -63 -20
-22 -15 -102 -42 -169 -56 -39 -8 -87 -19 -106 -24 -57 -15 -177 -39 -223 -44
-23 -3 -53 -8 -67 -10 -14 -3 -47 -7 -74 -11 -27 -3 -52 -8 -56 -10 -7 -5
-155 -14 -290 -19 -52 -2 -99 -5 -105 -7 -9 -2 -331 13 -345 16 -3 1 -34 5
-70 9 -143 17 -419 73 -500 101 -19 6 -41 10 -48 7 -8 -2 -24 0 -35 6 -42 20
-90 32 -127 32 -24 0 -40 5 -44 15 -3 10 -19 15 -43 15 -32 -1 -35 -2 -20 -11
10 -6 25 -8 33 -5 21 8 17 -22 -4 -33 -10 -6 -28 -7 -40 -4 -13 3 -22 1 -22
-6 0 -6 7 -8 17 -4 10 4 14 2 9 -5 -4 -6 3 -16 15 -23 17 -9 19 -13 8 -20 -8
-5 -22 -6 -32 -3 -10 3 -24 0 -32 -6 -17 -14 -113 -15 -158 -2 -17 6 -61 13
-97 16 -61 6 -161 28 -205 46 -51 21 -91 35 -97 35 -4 0 -33 13 -65 29 -88 45
-92 46 -105 46 -13 0 -219 72 -275 96 -17 8 -34 14 -37 14 -3 0 -29 14 -58 31
-29 17 -64 33 -78 36 -31 5 -101 53 -95 63 3 5 -5 7 -18 6 -20 -2 -23 1 -19
21 6 33 0 29 -37 -22 -18 -26 -40 -45 -51 -45 -28 0 -50 11 -50 25 0 7 -7 15
-15 19 -8 3 -15 12 -15 19 0 8 -7 20 -15 27 -43 36 -76 164 -73 285 1 75 -3
103 -24 165 -15 41 -34 120 -43 175 -71 422 -117 595 -385 1440 -221 694 -458
1341 -633 1725 -13 30 -39 89 -57 130 -42 98 -126 274 -173 365 -9 17 -25 50
-36 75 -22 49 -77 147 -93 168 -6 6 -8 12 -4 12 3 0 -5 20 -19 43 -13 24 -35
64 -48 88 -78 146 -338 583 -391 659 -18 25 -35 52 -39 60 -4 8 -15 27 -25 41
-71 110 -102 156 -112 167 -6 6 -7 12 -3 12 4 0 3 4 -2 8 -6 4 -39 50 -73 102
-34 52 -67 102 -72 110 -5 8 -32 48 -60 88 -27 41 -50 76 -50 80 0 3 -8 15
-19 26 -10 12 -47 63 -82 115 -35 51 -76 110 -91 130 -15 20 -47 65 -71 101
-25 36 -57 79 -71 95 -15 17 -36 47 -48 68 -12 20 -26 37 -30 37 -5 0 -6 5 -3
10 3 6 2 10 -3 10 -5 0 -29 28 -53 63 -23 34 -67 92 -96 129 -30 37 -55 71
-56 75 -1 4 -10 16 -20 27 -9 12 -58 73 -107 136 -131 167 -130 166 -130 155z
m7183 -7132 c-13 -2 -33 -2 -45 0 -13 2 -3 4 22 4 25 0 35 -2 23 -4z m350
-143 c3 -11 1 -20 -4 -20 -5 0 -9 9 -9 20 0 11 2 20 4 20 2 0 6 -9 9 -20z
m1994 -732 c-3 -8 -6 -5 -6 6 -1 11 2 17 5 13 3 -3 4 -12 1 -19z"/>
<path d="M16205 10540 c-321 -8 -521 -23 -715 -56 -108 -18 -391 -81 -398 -89
-8 -8 10 -6 48 5 63 18 323 69 445 86 168 25 905 27 905 3 0 -5 -5 -9 -12 -9
-6 0 -9 -2 -7 -4 2 -3 36 4 74 15 199 56 478 -66 577 -253 31 -58 27 -27 -4
37 -24 49 -116 137 -181 173 -26 15 -50 36 -53 48 -3 12 -15 26 -27 32 -33 16
-281 20 -652 12z"/>
<path d="M16430 10460 c-8 -5 -10 -10 -5 -10 6 0 17 5 25 10 8 5 11 10 5 10
-5 0 -17 -5 -25 -10z"/>
<path d="M16278 10387 c-171 -95 -324 -216 -388 -307 -13 -19 10 1 53 46 87
92 213 185 355 261 53 29 92 53 87 53 -6 0 -54 -24 -107 -53z"/>
<path d="M15058 10383 c7 -3 16 -2 19 1 4 3 -2 6 -13 5 -11 0 -14 -3 -6 -6z"/>
<path d="M15018 10373 c7 -3 16 -2 19 1 4 3 -2 6 -13 5 -11 0 -14 -3 -6 -6z"/>
<path d="M14948 10353 c7 -3 16 -2 19 1 4 3 -2 6 -13 5 -11 0 -14 -3 -6 -6z"/>
<path d="M14885 10340 c-13 -5 -14 -9 -5 -9 8 0 24 4 35 9 13 5 14 9 5 9 -8 0
-24 -4 -35 -9z"/>
<path d="M14785 10310 c-13 -5 -14 -9 -5 -9 8 0 24 4 35 9 13 5 14 9 5 9 -8 0
-24 -4 -35 -9z"/>
<path d="M9130 9976 c0 -2 7 -6 15 -10 8 -3 15 -1 15 4 0 6 -7 10 -15 10 -8 0
-15 -2 -15 -4z"/>
<path d="M7960 9335 c-14 -8 -20 -14 -14 -15 5 0 19 7 30 15 24 18 16 19 -16
0z"/>
<path d="M7904 9304 c-18 -14 -18 -15 4 -4 12 6 22 13 22 15 0 8 -5 6 -26 -11z"/>
<path d="M7835 9270 c-3 -6 1 -7 9 -4 18 7 21 14 7 14 -6 0 -13 -4 -16 -10z"/>
<path d="M12302 8971 c-58 -48 -110 -107 -145 -163 -15 -24 -15 -32 -2 -82 15
-56 31 -212 19 -188 -3 6 -10 10 -15 6 -5 -3 -12 2 -15 11 -4 10 -10 12 -18 6
-8 -7 -11 2 -9 32 l3 42 -19 -40 c-28 -58 -26 -16 3 70 13 38 18 62 11 52 -34
-47 -88 -309 -67 -328 16 -14 105 -29 174 -29 40 0 125 5 188 10 218 18 962
48 1380 55 173 2 414 11 535 20 507 34 735 30 1270 -21 130 -12 234 -15 440
-11 284 6 453 24 763 82 76 14 225 39 332 55 l195 29 -175 -4 c-96 -3 -250 -6
-341 -6 -92 -1 -191 -5 -220 -10 -56 -8 -76 -10 -274 -30 -66 -6 -160 -17
-210 -24 -49 -7 -148 -13 -220 -14 -143 -1 -256 10 -575 54 -63 9 -164 23
-225 31 -108 15 -398 20 -519 9 -32 -3 -86 -8 -120 -11 -34 -3 -82 -5 -108 -5
-27 1 -48 -3 -48 -7 0 -4 -26 -7 -58 -8 -31 -1 -133 -4 -227 -7 -349 -13 -778
-13 -782 0 -3 9 -14 11 -30 7 -17 -5 -24 -3 -20 4 7 11 -47 34 -57 25 -3 -3
-9 3 -12 13 -9 23 -53 64 -70 64 -7 0 -14 5 -16 12 -7 21 -119 26 -178 9 -51
-16 -98 -13 -133 7 -32 17 -88 67 -88 77 1 19 -17 45 -50 76 -39 35 -40 35
-119 32 -66 -2 -84 1 -98 15 -9 9 -16 25 -14 35 2 9 -4 20 -13 23 -14 6 -11
12 16 40 47 49 29 42 -39 -15z"/>
<path d="M2836 8957 c3 -10 9 -15 12 -12 3 3 0 11 -7 18 -10 9 -11 8 -5 -6z"/>
<path d="M2946 8796 c3 -9 10 -16 14 -16 4 0 10 -9 13 -20 3 -11 10 -20 17
-20 6 0 2 13 -10 30 -24 34 -42 48 -34 26z"/>
<path d="M3081 8615 c9 -11 19 -27 22 -35 5 -13 6 -13 6 1 1 9 -9 24 -21 35
-23 19 -23 19 -7 -1z"/>
<path d="M17343 8583 c9 -2 23 -2 30 0 6 3 -1 5 -18 5 -16 0 -22 -2 -12 -5z"/>
<path d="M3120 8561 c0 -5 5 -13 10 -16 6 -3 10 -2 10 4 0 5 -4 13 -10 16 -5
3 -10 2 -10 -4z"/>
<path d="M3211 8424 c0 -11 3 -14 6 -6 3 7 2 16 -1 19 -3 4 -6 -2 -5 -13z"/>
<path d="M3231 8414 c1 -21 16 -47 21 -38 4 5 0 18 -8 29 -8 10 -14 15 -13 9z"/>
<path d="M3260 8357 c0 -19 16 -31 24 -18 3 5 -1 14 -9 21 -12 10 -15 10 -15
-3z"/>
<path d="M12340 5288 c-64 -38 -343 -178 -357 -178 -7 0 -13 -5 -13 -10 0 -6
-12 -15 -26 -21 -15 -5 -24 -12 -21 -15 3 -3 18 1 34 9 15 8 89 45 163 83 122
61 187 96 245 131 11 6 17 14 14 17 -3 3 -20 -4 -39 -16z"/>
<path d="M11790 5010 c0 -5 7 -7 15 -4 8 4 15 8 15 10 0 2 -7 4 -15 4 -8 0
-15 -4 -15 -10z"/>
<path d="M11741 4989 c-13 -5 -21 -12 -18 -15 3 -3 18 1 34 10 31 17 21 20
-16 5z"/>
<path d="M11655 4955 c-107 -48 -196 -81 -204 -76 -2 2 -7 -2 -10 -8 -4 -6
-18 -12 -31 -13 -14 -2 -27 -6 -30 -9 -6 -7 -193 -77 -300 -112 -71 -24 -186
-59 -348 -107 -40 -12 -71 -24 -69 -27 3 -2 30 3 61 12 32 9 64 14 72 11 9 -3
12 -2 9 5 -4 6 -1 9 6 8 8 -1 21 0 29 3 15 6 110 36 179 57 18 6 37 8 42 5 5
-3 22 4 38 15 31 22 57 28 46 11 -4 -6 -11 -8 -16 -5 -5 4 -9 2 -9 -3 0 -5
-10 -14 -22 -20 -22 -10 -22 -11 7 -11 19 -1 37 7 48 19 9 11 23 17 30 14 8
-3 19 1 25 9 9 11 6 13 -21 11 l-32 -3 34 8 c19 5 42 8 52 6 12 -3 16 1 12 11
-4 10 4 14 28 15 19 1 37 1 42 0 4 0 6 5 5 12 -2 7 9 12 30 13 19 1 39 9 48
20 9 10 13 13 9 7 -8 -16 11 -9 133 51 51 25 108 53 127 61 35 14 45 26 23 24
-7 0 -26 -6 -43 -14z"/>
<path d="M11036 4684 c-17 -12 -17 -14 -3 -20 9 -3 23 -2 32 3 13 8 14 12 3
20 -10 8 -18 8 -32 -3z"/>
<path d="M10955 4653 c-11 -3 -24 -10 -30 -16 -5 -7 -6 -8 -1 -4 5 4 15 2 21
-3 16 -13 45 -2 45 16 0 15 -2 15 -35 7z"/>
</g>
</svg>
